<?xml version="1.0" encoding="UTF-8"?>
<svg width="39px" height="43px" viewBox="0 0 39 43" version="1.1" xmlns="http://www.w3.org/2000/svg" xmlns:xlink="http://www.w3.org/1999/xlink">
    <title>SwapX备份</title>
    <g id="页面-1" stroke="none" stroke-width="1" fill="none" fill-rule="evenodd">
        <g id="画板" transform="translate(-1197.000000, -947.000000)" fill="#FF1818" fill-rule="nonzero">
            <g id="SwapX备份" transform="translate(1197.000000, 947.000000)">
                <path d="M38.2724,41.4852769 C38.2724,42.1892769 37.7,42.7642769 36.9962,42.7292769 C27.3019,42.2562769 19.1335,36.4212769 16.0696,28.6482769 L2.1717,42.3582769 C1.3655,43.1532769 0,42.5822769 0,41.4502769 L0,31.6842769 C0,31.3172769 0.158,30.9672769 0.4336,30.7252769 L4.7553,26.9282769 L11.1503,21.1922769 L14.2658,18.4064769 C12.8052,13.2586769 7.5961,9.33567689 1.2747,8.86657689 C0.572,8.81447689 0,8.24837689 0,7.54377689 L0,1.24607689 C0,0.541476894 0.572,-0.0330231056 1.2757,0.00147689438 C13.6413,0.606076894 23.5305,9.94677689 23.5305,21.3562769 C23.5305,27.8742769 29.4728,33.3072769 36.9969,33.8642769 C37.6995,33.9162769 38.2724,34.4832769 38.2724,35.1872769 L38.2724,41.4852769 Z" id="路径"></path>
                <path d="M25.6578,21.5152769 C25.6578,18.1562769 24.8381,14.8787769 23.5262,11.9289769 L36.133,0.341876894 C36.9508,-0.409923106 38.272,0.170276894 38.272,1.28107689 L38.272,11.1556769 C38.272,11.5435769 38.0955,11.9104769 37.7924,12.1525769 L25.6578,21.8432769 L25.6578,21.5152769 Z" id="路径"></path>
            </g>
        </g>
    </g>
</svg>